# xmcd CD database file
#
# Track frame offsets:
#	150
#	22873
#	37707
#	46324
#	61876
#	84448
#	100181
#	115623
#	127489
#	143723
#	167441
#	185068
#
# Disc length: 2613 seconds
#
# Revision: 1
# Processed by: cddbd v1.5.1PL0 Copyright (c) Steve Scherf et al.
# Submitted via: CDex 1.51
#
DISCID=930a330c
DTITLE=B.B. King - How Blue Can You Get
DYEAR=2001
DGENRE=Blues
TTITLE0=Everyday I Have The Blues
TTITLE1=B.B. Boogie
TTITLE2=A New Way Of Driving
TTITLE3=Walkin' And Cryin'
TTITLE4=The Thrill Is Gone
TTITLE5=The Letter
TTITLE6=How Blue Can You Get
TTITLE7=Paying The Cost To Be The Boss
TTITLE8=It's My Own Fault
TTITLE9=You've Done Lost Your Good Thing Now
TTITLE10=That Evil Child
TTITLE11=Catfish Blues
EXTD=YEAR: 2001
EXTT0=
EXTT1=
EXTT2=
EXTT3=
EXTT4=
EXTT5=
EXTT6=
EXTT7=
EXTT8=
EXTT9=
EXTT10=
EXTT11=
PLAYORDER=
